<svg width="206" height="52" viewBox="0 0 206 52" fill="none" xmlns="http://www.w3.org/2000/svg">
<path d="M13.1313 43.1329V9.84137L43.4141 26.6643L13.1313 43.1329Z" fill="white"/>
<path d="M59.1939 27.9672C59.1939 26.8338 59.4205 25.8405 59.8739 24.9872C60.3405 24.1205 60.9805 23.4538 61.7939 22.9872C62.6072 22.5205 63.5405 22.2872 64.5939 22.2872C65.9272 22.2872 67.0272 22.6072 67.8939 23.2472C68.7739 23.8738 69.3672 24.7738 69.6739 25.9472H67.2139C67.0139 25.4005 66.6939 24.9738 66.2539 24.6672C65.8139 24.3605 65.2605 24.2072 64.5939 24.2072C63.6605 24.2072 62.9139 24.5405 62.3539 25.2072C61.8072 25.8605 61.5339 26.7805 61.5339 27.9672C61.5339 29.1538 61.8072 30.0805 62.3539 30.7472C62.9139 31.4138 63.6605 31.7472 64.5939 31.7472C65.9139 31.7472 66.7872 31.1672 67.2139 30.0072H69.6739C69.3539 31.1272 68.7539 32.0205 67.8739 32.6872C66.9939 33.3405 65.9005 33.6672 64.5939 33.6672C63.5405 33.6672 62.6072 33.4338 61.7939 32.9672C60.9805 32.4872 60.3405 31.8205 59.8739 30.9672C59.4205 30.1005 59.1939 29.1005 59.1939 27.9672ZM76.726 33.6672C75.686 33.6672 74.746 33.4338 73.906 32.9672C73.066 32.4872 72.406 31.8205 71.926 30.9672C71.446 30.1005 71.206 29.1005 71.206 27.9672C71.206 26.8472 71.4527 25.8538 71.946 24.9872C72.4394 24.1205 73.1127 23.4538 73.966 22.9872C74.8194 22.5205 75.7727 22.2872 76.826 22.2872C77.8794 22.2872 78.8327 22.5205 79.686 22.9872C80.5394 23.4538 81.2127 24.1205 81.706 24.9872C82.1994 25.8538 82.446 26.8472 82.446 27.9672C82.446 29.0872 82.1927 30.0805 81.686 30.9472C81.1794 31.8138 80.486 32.4872 79.606 32.9672C78.7394 33.4338 77.7794 33.6672 76.726 33.6672ZM76.726 31.6872C77.3127 31.6872 77.8594 31.5472 78.366 31.2672C78.886 30.9872 79.306 30.5672 79.626 30.0072C79.946 29.4472 80.106 28.7672 80.106 27.9672C80.106 27.1672 79.9527 26.4938 79.646 25.9472C79.3394 25.3872 78.9327 24.9672 78.426 24.6872C77.9194 24.4072 77.3727 24.2672 76.786 24.2672C76.1994 24.2672 75.6527 24.4072 75.146 24.6872C74.6527 24.9672 74.2594 25.3872 73.966 25.9472C73.6727 26.4938 73.526 27.1672 73.526 27.9672C73.526 29.1538 73.826 30.0738 74.426 30.7272C75.0394 31.3672 75.806 31.6872 76.726 31.6872ZM98.04 22.2872C98.9066 22.2872 99.68 22.4672 100.36 22.8272C101.053 23.1872 101.593 23.7205 101.98 24.4272C102.38 25.1338 102.58 25.9872 102.58 26.9872V33.4872H100.32V27.3272C100.32 26.3405 100.073 25.5872 99.58 25.0672C99.0866 24.5338 98.4133 24.2672 97.56 24.2672C96.7066 24.2672 96.0266 24.5338 95.52 25.0672C95.0266 25.5872 94.78 26.3405 94.78 27.3272V33.4872H92.52V27.3272C92.52 26.3405 92.2733 25.5872 91.78 25.0672C91.2866 24.5338 90.6133 24.2672 89.76 24.2672C88.9066 24.2672 88.2266 24.5338 87.72 25.0672C87.2266 25.5872 86.98 26.3405 86.98 27.3272V33.4872H84.7V22.4672H86.98V23.7272C87.3533 23.2738 87.8266 22.9205 88.4 22.6672C88.9733 22.4138 89.5866 22.2872 90.24 22.2872C91.12 22.2872 91.9066 22.4738 92.6 22.8472C93.2933 23.2205 93.8266 23.7605 94.2 24.4672C94.5333 23.8005 95.0533 23.2738 95.76 22.8872C96.4666 22.4872 97.2266 22.2872 98.04 22.2872ZM118.821 22.2872C119.688 22.2872 120.461 22.4672 121.141 22.8272C121.835 23.1872 122.375 23.7205 122.761 24.4272C123.161 25.1338 123.361 25.9872 123.361 26.9872V33.4872H121.101V27.3272C121.101 26.3405 120.855 25.5872 120.361 25.0672C119.868 24.5338 119.195 24.2672 118.341 24.2672C117.488 24.2672 116.808 24.5338 116.301 25.0672C115.808 25.5872 115.561 26.3405 115.561 27.3272V33.4872H113.301V27.3272C113.301 26.3405 113.055 25.5872 112.561 25.0672C112.068 24.5338 111.395 24.2672 110.541 24.2672C109.688 24.2672 109.008 24.5338 108.501 25.0672C108.008 25.5872 107.761 26.3405 107.761 27.3272V33.4872H105.481V22.4672H107.761V23.7272C108.135 23.2738 108.608 22.9205 109.181 22.6672C109.755 22.4138 110.368 22.2872 111.021 22.2872C111.901 22.2872 112.688 22.4738 113.381 22.8472C114.075 23.2205 114.608 23.7605 114.981 24.4672C115.315 23.8005 115.835 23.2738 116.541 22.8872C117.248 22.4872 118.008 22.2872 118.821 22.2872ZM136.362 27.7072C136.362 28.1205 136.336 28.4938 136.282 28.8272H127.862C127.929 29.7072 128.256 30.4138 128.842 30.9472C129.429 31.4805 130.149 31.7472 131.002 31.7472C132.229 31.7472 133.096 31.2338 133.602 30.2072H136.062C135.729 31.2205 135.122 32.0538 134.242 32.7072C133.376 33.3472 132.296 33.6672 131.002 33.6672C129.949 33.6672 129.002 33.4338 128.162 32.9672C127.336 32.4872 126.682 31.8205 126.202 30.9672C125.736 30.1005 125.502 29.1005 125.502 27.9672C125.502 26.8338 125.729 25.8405 126.182 24.9872C126.649 24.1205 127.296 23.4538 128.122 22.9872C128.962 22.5205 129.922 22.2872 131.002 22.2872C132.042 22.2872 132.969 22.5138 133.782 22.9672C134.596 23.4205 135.229 24.0605 135.682 24.8872C136.136 25.7005 136.362 26.6405 136.362 27.7072ZM133.982 26.9872C133.969 26.1472 133.669 25.4738 133.082 24.9672C132.496 24.4605 131.769 24.2072 130.902 24.2072C130.116 24.2072 129.442 24.4605 128.882 24.9672C128.322 25.4605 127.989 26.1338 127.882 26.9872H133.982ZM144.166 22.2872C145.033 22.2872 145.806 22.4672 146.486 22.8272C147.18 23.1872 147.72 23.7205 148.106 24.4272C148.493 25.1338 148.686 25.9872 148.686 26.9872V33.4872H146.426V27.3272C146.426 26.3405 146.18 25.5872 145.686 25.0672C145.193 24.5338 144.52 24.2672 143.666 24.2672C142.813 24.2672 142.133 24.5338 141.626 25.0672C141.133 25.5872 140.886 26.3405 140.886 27.3272V33.4872H138.606V22.4672H140.886V23.7272C141.26 23.2738 141.733 22.9205 142.306 22.6672C142.893 22.4138 143.513 22.2872 144.166 22.2872ZM150.834 27.9672C150.834 26.8338 151.061 25.8405 151.514 24.9872C151.981 24.1205 152.621 23.4538 153.434 22.9872C154.248 22.5205 155.181 22.2872 156.234 22.2872C157.568 22.2872 158.668 22.6072 159.534 23.2472C160.414 23.8738 161.008 24.7738 161.314 25.9472H158.854C158.654 25.4005 158.334 24.9738 157.894 24.6672C157.454 24.3605 156.901 24.2072 156.234 24.2072C155.301 24.2072 154.554 24.5405 153.994 25.2072C153.448 25.8605 153.174 26.7805 153.174 27.9672C153.174 29.1538 153.448 30.0805 153.994 30.7472C154.554 31.4138 155.301 31.7472 156.234 31.7472C157.554 31.7472 158.428 31.1672 158.854 30.0072H161.314C160.994 31.1272 160.394 32.0205 159.514 32.6872C158.634 33.3405 157.541 33.6672 156.234 33.6672C155.181 33.6672 154.248 33.4338 153.434 32.9672C152.621 32.4872 151.981 31.8205 151.514 30.9672C151.061 30.1005 150.834 29.1005 150.834 27.9672ZM173.687 27.7072C173.687 28.1205 173.66 28.4938 173.607 28.8272H165.187C165.253 29.7072 165.58 30.4138 166.167 30.9472C166.753 31.4805 167.473 31.7472 168.327 31.7472C169.553 31.7472 170.42 31.2338 170.927 30.2072H173.387C173.053 31.2205 172.447 32.0538 171.567 32.7072C170.7 33.3472 169.62 33.6672 168.327 33.6672C167.273 33.6672 166.327 33.4338 165.487 32.9672C164.66 32.4872 164.007 31.8205 163.527 30.9672C163.06 30.1005 162.827 29.1005 162.827 27.9672C162.827 26.8338 163.053 25.8405 163.507 24.9872C163.973 24.1205 164.62 23.4538 165.447 22.9872C166.287 22.5205 167.247 22.2872 168.327 22.2872C169.367 22.2872 170.293 22.5138 171.107 22.9672C171.92 23.4205 172.553 24.0605 173.007 24.8872C173.46 25.7005 173.687 26.6405 173.687 27.7072ZM171.307 26.9872C171.293 26.1472 170.993 25.4738 170.407 24.9672C169.82 24.4605 169.093 24.2072 168.227 24.2072C167.44 24.2072 166.767 24.4605 166.207 24.9672C165.647 25.4605 165.313 26.1338 165.207 26.9872H171.307ZM178.21 24.0672C178.544 23.5072 178.984 23.0738 179.53 22.7672C180.09 22.4472 180.75 22.2872 181.51 22.2872V24.6472H180.93C180.037 24.6472 179.357 24.8738 178.89 25.3272C178.437 25.7805 178.21 26.5672 178.21 27.6872V33.4872H175.93V22.4672H178.21V24.0672Z" fill="white"/>
</svg>
