<svg width="20" height="31" viewBox="0 0 20 31" fill="none" xmlns="http://www.w3.org/2000/svg">
<path d="M10.3734 0.340314C13.2268 0.340314 15.5068 1.08698 17.2134 2.58031C18.9468 4.07365 19.8134 6.18032 19.8134 8.90032C19.8134 11.407 18.9868 13.367 17.3334 14.7803C15.7068 16.167 13.5468 16.8736 10.8534 16.9003L10.6534 19.9003H4.65342L4.45342 12.4603H6.85342C8.90675 12.4603 10.4668 12.207 11.5334 11.7003C12.6268 11.1936 13.1734 10.2736 13.1734 8.94032C13.1734 8.00698 12.9201 7.27365 12.4134 6.74031C11.9068 6.20698 11.2001 5.94032 10.2934 5.94032C9.33342 5.94032 8.58675 6.22032 8.05342 6.78031C7.52009 7.31365 7.25342 8.04698 7.25342 8.98031H0.81342C0.760087 7.35365 1.09342 5.88698 1.81342 4.58031C2.56009 3.27365 3.65342 2.24698 5.09342 1.50032C6.56009 0.726981 8.32009 0.340314 10.3734 0.340314ZM7.73342 30.3003C6.53342 30.3003 5.54675 29.9536 4.77342 29.2603C4.02675 28.5403 3.65342 27.6603 3.65342 26.6203C3.65342 25.5536 4.02675 24.6603 4.77342 23.9403C5.54675 23.2203 6.53342 22.8603 7.73342 22.8603C8.90675 22.8603 9.86675 23.2203 10.6134 23.9403C11.3868 24.6603 11.7734 25.5536 11.7734 26.6203C11.7734 27.6603 11.3868 28.5403 10.6134 29.2603C9.86675 29.9536 8.90675 30.3003 7.73342 30.3003Z" fill="white"/>
</svg>