<svg width="94" height="94" viewBox="0 0 94 94" fill="none" xmlns="http://www.w3.org/2000/svg">
<path d="M93.6735 40.3109L70.663 46.9295L93.6735 53.5452L69.7106 53.4783L89.906 66.2468L66.935 59.5L82.6783 77.3809L62.5561 64.5009L72.5735 86.0467L56.9317 68.0793L60.4089 91.544L50.5154 69.9424L47.1735 93.4295L43.8315 69.9424L33.9381 91.544L37.4153 68.0793L21.7763 86.0467L31.7909 64.5009L11.6687 77.3809L27.412 59.5L4.44091 66.2468L24.6364 53.4783L0.673462 53.5452L23.6839 46.9295L0.673462 40.3109L24.6364 40.3779L4.44091 27.6121L27.412 34.359L11.6687 16.478L31.7909 29.3581L21.7763 7.81224L37.4153 25.7797L33.9381 2.31212L43.8315 23.9165L47.1735 0.429474L50.5154 23.9165L60.4089 2.31212L56.9317 25.7797L72.5735 7.81224L62.5561 29.3581L82.6783 16.478L66.935 34.359L89.906 27.6121L69.7106 40.3779L93.6735 40.3109Z" fill="#01A24C"/>
</svg>