<svg width="206" height="52" viewBox="0 0 206 52" fill="none" xmlns="http://www.w3.org/2000/svg">
<path d="M25.7059 11.6155C28.5592 11.6155 30.8392 12.3622 32.5459 13.8555C34.2792 15.3488 35.1459 17.4555 35.1459 20.1755C35.1459 22.6822 34.3192 24.6422 32.6659 26.0555C31.0392 27.4422 28.8792 28.1488 26.1859 28.1755L25.9859 31.1755H19.9859L19.7859 23.7355H22.1859C24.2392 23.7355 25.7992 23.4822 26.8659 22.9755C27.9592 22.4688 28.5059 21.5488 28.5059 20.2155C28.5059 19.2822 28.2525 18.5488 27.7459 18.0155C27.2392 17.4822 26.5325 17.2155 25.6259 17.2155C24.6659 17.2155 23.9192 17.4955 23.3859 18.0555C22.8525 18.5888 22.5859 19.3222 22.5859 20.2555H16.1459C16.0925 18.6288 16.4259 17.1622 17.1459 15.8555C17.8925 14.5488 18.9859 13.5222 20.4259 12.7755C21.8925 12.0022 23.6525 11.6155 25.7059 11.6155ZM23.0659 41.5755C21.8659 41.5755 20.8792 41.2288 20.1059 40.5355C19.3592 39.8155 18.9859 38.9355 18.9859 37.8955C18.9859 36.8288 19.3592 35.9355 20.1059 35.2155C20.8792 34.4955 21.8659 34.1355 23.0659 34.1355C24.2392 34.1355 25.1992 34.4955 25.9459 35.2155C26.7192 35.9355 27.1059 36.8288 27.1059 37.8955C27.1059 38.9355 26.7192 39.8155 25.9459 40.5355C25.1992 41.2288 24.2392 41.5755 23.0659 41.5755Z" fill="white"/>
<path d="M59.1939 27.0897C59.1939 25.9564 59.4205 24.9631 59.8739 24.1097C60.3405 23.2431 60.9805 22.5764 61.7939 22.1097C62.6072 21.6431 63.5405 21.4097 64.5939 21.4097C65.9272 21.4097 67.0272 21.7297 67.8939 22.3697C68.7739 22.9964 69.3672 23.8964 69.6739 25.0697H67.2139C67.0139 24.5231 66.6939 24.0964 66.2539 23.7897C65.8139 23.4831 65.2605 23.3297 64.5939 23.3297C63.6605 23.3297 62.9139 23.6631 62.3539 24.3297C61.8072 24.9831 61.5339 25.9031 61.5339 27.0897C61.5339 28.2764 61.8072 29.2031 62.3539 29.8697C62.9139 30.5364 63.6605 30.8697 64.5939 30.8697C65.9139 30.8697 66.7872 30.2897 67.2139 29.1297H69.6739C69.3539 30.2497 68.7539 31.1431 67.8739 31.8097C66.9939 32.4631 65.9005 32.7897 64.5939 32.7897C63.5405 32.7897 62.6072 32.5564 61.7939 32.0897C60.9805 31.6097 60.3405 30.9431 59.8739 30.0897C59.4205 29.2231 59.1939 28.2231 59.1939 27.0897ZM76.726 32.7897C75.686 32.7897 74.746 32.5564 73.906 32.0897C73.066 31.6097 72.406 30.9431 71.926 30.0897C71.446 29.2231 71.206 28.2231 71.206 27.0897C71.206 25.9697 71.4527 24.9764 71.946 24.1097C72.4394 23.2431 73.1127 22.5764 73.966 22.1097C74.8194 21.6431 75.7727 21.4097 76.826 21.4097C77.8794 21.4097 78.8327 21.6431 79.686 22.1097C80.5394 22.5764 81.2127 23.2431 81.706 24.1097C82.1994 24.9764 82.446 25.9697 82.446 27.0897C82.446 28.2097 82.1927 29.2031 81.686 30.0697C81.1794 30.9364 80.486 31.6097 79.606 32.0897C78.7394 32.5564 77.7794 32.7897 76.726 32.7897ZM76.726 30.8097C77.3127 30.8097 77.8594 30.6697 78.366 30.3897C78.886 30.1097 79.306 29.6897 79.626 29.1297C79.946 28.5697 80.106 27.8897 80.106 27.0897C80.106 26.2897 79.9527 25.6164 79.646 25.0697C79.3394 24.5097 78.9327 24.0897 78.426 23.8097C77.9194 23.5297 77.3727 23.3897 76.786 23.3897C76.1994 23.3897 75.6527 23.5297 75.146 23.8097C74.6527 24.0897 74.2594 24.5097 73.966 25.0697C73.6727 25.6164 73.526 26.2897 73.526 27.0897C73.526 28.2764 73.826 29.1964 74.426 29.8497C75.0394 30.4897 75.806 30.8097 76.726 30.8097ZM90.26 21.4097C91.1266 21.4097 91.9 21.5897 92.58 21.9497C93.2733 22.3097 93.8133 22.8431 94.2 23.5497C94.5866 24.2564 94.78 25.1097 94.78 26.1097V32.6097H92.52V26.4497C92.52 25.4631 92.2733 24.7097 91.78 24.1897C91.2866 23.6564 90.6133 23.3897 89.76 23.3897C88.9066 23.3897 88.2266 23.6564 87.72 24.1897C87.2266 24.7097 86.98 25.4631 86.98 26.4497V32.6097H84.7V21.5897H86.98V22.8497C87.3533 22.3964 87.8266 22.0431 88.4 21.7897C88.9866 21.5364 89.6066 21.4097 90.26 21.4097ZM101.688 32.7897C100.822 32.7897 100.042 32.6364 99.3482 32.3297C98.6682 32.0097 98.1282 31.5831 97.7282 31.0497C97.3282 30.5031 97.1149 29.8964 97.0882 29.2297H99.4482C99.4882 29.6964 99.7082 30.0897 100.108 30.4097C100.522 30.7164 101.035 30.8697 101.648 30.8697C102.288 30.8697 102.782 30.7497 103.128 30.5097C103.488 30.2564 103.668 29.9364 103.668 29.5497C103.668 29.1364 103.468 28.8297 103.068 28.6297C102.682 28.4297 102.062 28.2097 101.208 27.9697C100.382 27.7431 99.7082 27.5231 99.1882 27.3097C98.6682 27.0964 98.2149 26.7697 97.8282 26.3297C97.4549 25.8897 97.2682 25.3097 97.2682 24.5897C97.2682 24.0031 97.4416 23.4697 97.7882 22.9897C98.1349 22.4964 98.6282 22.1097 99.2682 21.8297C99.9216 21.5497 100.668 21.4097 101.508 21.4097C102.762 21.4097 103.768 21.7297 104.528 22.3697C105.302 22.9964 105.715 23.8564 105.768 24.9497H103.488C103.448 24.4564 103.248 24.0631 102.888 23.7697C102.528 23.4764 102.042 23.3297 101.428 23.3297C100.828 23.3297 100.368 23.4431 100.048 23.6697C99.7282 23.8964 99.5682 24.1964 99.5682 24.5697C99.5682 24.8631 99.6749 25.1097 99.8882 25.3097C100.102 25.5097 100.362 25.6697 100.668 25.7897C100.975 25.8964 101.428 26.0364 102.028 26.2097C102.828 26.4231 103.482 26.6431 103.988 26.8697C104.508 27.0831 104.955 27.4031 105.328 27.8297C105.702 28.2564 105.895 28.8231 105.908 29.5297C105.908 30.1564 105.735 30.7164 105.388 31.2097C105.042 31.7031 104.548 32.0897 103.908 32.3697C103.282 32.6497 102.542 32.7897 101.688 32.7897ZM109.532 20.1297C109.118 20.1297 108.772 19.9897 108.492 19.7097C108.212 19.4297 108.072 19.0831 108.072 18.6697C108.072 18.2564 108.212 17.9097 108.492 17.6297C108.772 17.3497 109.118 17.2097 109.532 17.2097C109.932 17.2097 110.272 17.3497 110.552 17.6297C110.832 17.9097 110.972 18.2564 110.972 18.6697C110.972 19.0831 110.832 19.4297 110.552 19.7097C110.272 19.9897 109.932 20.1297 109.532 20.1297ZM110.652 21.5897V32.6097H108.372V21.5897H110.652ZM118.085 21.4097C118.939 21.4097 119.692 21.5831 120.345 21.9297C121.012 22.2631 121.532 22.6831 121.905 23.1897V21.5897H124.205V32.7897C124.205 33.8031 123.992 34.7031 123.565 35.4897C123.139 36.2897 122.519 36.9164 121.705 37.3697C120.905 37.8231 119.945 38.0497 118.825 38.0497C117.332 38.0497 116.092 37.6964 115.105 36.9897C114.119 36.2964 113.559 35.3497 113.425 34.1497H115.685C115.859 34.7231 116.225 35.1831 116.785 35.5297C117.359 35.8897 118.039 36.0697 118.825 36.0697C119.745 36.0697 120.485 35.7897 121.045 35.2297C121.619 34.6697 121.905 33.8564 121.905 32.7897V30.9497C121.519 31.4697 120.992 31.9097 120.325 32.2697C119.672 32.6164 118.925 32.7897 118.085 32.7897C117.125 32.7897 116.245 32.5497 115.445 32.0697C114.659 31.5764 114.032 30.8964 113.565 30.0297C113.112 29.1497 112.885 28.1564 112.885 27.0497C112.885 25.9431 113.112 24.9631 113.565 24.1097C114.032 23.2564 114.659 22.5964 115.445 22.1297C116.245 21.6497 117.125 21.4097 118.085 21.4097ZM121.905 27.0897C121.905 26.3297 121.745 25.6697 121.425 25.1097C121.119 24.5497 120.712 24.1231 120.205 23.8297C119.699 23.5364 119.152 23.3897 118.565 23.3897C117.979 23.3897 117.432 23.5364 116.925 23.8297C116.419 24.1097 116.005 24.5297 115.685 25.0897C115.379 25.6364 115.225 26.2897 115.225 27.0497C115.225 27.8097 115.379 28.4764 115.685 29.0497C116.005 29.6231 116.419 30.0631 116.925 30.3697C117.445 30.6631 117.992 30.8097 118.565 30.8097C119.152 30.8097 119.699 30.6631 120.205 30.3697C120.712 30.0764 121.119 29.6497 121.425 29.0897C121.745 28.5164 121.905 27.8497 121.905 27.0897ZM132.76 21.4097C133.627 21.4097 134.4 21.5897 135.08 21.9497C135.773 22.3097 136.313 22.8431 136.7 23.5497C137.087 24.2564 137.28 25.1097 137.28 26.1097V32.6097H135.02V26.4497C135.02 25.4631 134.773 24.7097 134.28 24.1897C133.787 23.6564 133.113 23.3897 132.26 23.3897C131.407 23.3897 130.727 23.6564 130.22 24.1897C129.727 24.7097 129.48 25.4631 129.48 26.4497V32.6097H127.2V21.5897H129.48V22.8497C129.853 22.3964 130.327 22.0431 130.9 21.7897C131.487 21.5364 132.107 21.4097 132.76 21.4097ZM150.288 26.8297C150.288 27.2431 150.262 27.6164 150.208 27.9497H141.788C141.855 28.8297 142.182 29.5364 142.768 30.0697C143.355 30.6031 144.075 30.8697 144.928 30.8697C146.155 30.8697 147.022 30.3564 147.528 29.3297H149.988C149.655 30.3431 149.048 31.1764 148.168 31.8297C147.302 32.4697 146.222 32.7897 144.928 32.7897C143.875 32.7897 142.928 32.5564 142.088 32.0897C141.262 31.6097 140.608 30.9431 140.128 30.0897C139.662 29.2231 139.428 28.2231 139.428 27.0897C139.428 25.9564 139.655 24.9631 140.108 24.1097C140.575 23.2431 141.222 22.5764 142.048 22.1097C142.888 21.6431 143.848 21.4097 144.928 21.4097C145.968 21.4097 146.895 21.6364 147.708 22.0897C148.522 22.5431 149.155 23.1831 149.608 24.0097C150.062 24.8231 150.288 25.7631 150.288 26.8297ZM147.908 26.1097C147.895 25.2697 147.595 24.5964 147.008 24.0897C146.422 23.5831 145.695 23.3297 144.828 23.3297C144.042 23.3297 143.368 23.5831 142.808 24.0897C142.248 24.5831 141.915 25.2564 141.808 26.1097H147.908ZM156.532 32.7897C155.665 32.7897 154.885 32.6364 154.192 32.3297C153.512 32.0097 152.972 31.5831 152.572 31.0497C152.172 30.5031 151.959 29.8964 151.932 29.2297H154.292C154.332 29.6964 154.552 30.0897 154.952 30.4097C155.365 30.7164 155.879 30.8697 156.492 30.8697C157.132 30.8697 157.625 30.7497 157.972 30.5097C158.332 30.2564 158.512 29.9364 158.512 29.5497C158.512 29.1364 158.312 28.8297 157.912 28.6297C157.525 28.4297 156.905 28.2097 156.052 27.9697C155.225 27.7431 154.552 27.5231 154.032 27.3097C153.512 27.0964 153.059 26.7697 152.672 26.3297C152.299 25.8897 152.112 25.3097 152.112 24.5897C152.112 24.0031 152.285 23.4697 152.632 22.9897C152.979 22.4964 153.472 22.1097 154.112 21.8297C154.765 21.5497 155.512 21.4097 156.352 21.4097C157.605 21.4097 158.612 21.7297 159.372 22.3697C160.145 22.9964 160.559 23.8564 160.612 24.9497H158.332C158.292 24.4564 158.092 24.0631 157.732 23.7697C157.372 23.4764 156.885 23.3297 156.272 23.3297C155.672 23.3297 155.212 23.4431 154.892 23.6697C154.572 23.8964 154.412 24.1964 154.412 24.5697C154.412 24.8631 154.519 25.1097 154.732 25.3097C154.945 25.5097 155.205 25.6697 155.512 25.7897C155.819 25.8964 156.272 26.0364 156.872 26.2097C157.672 26.4231 158.325 26.6431 158.832 26.8697C159.352 27.0831 159.799 27.4031 160.172 27.8297C160.545 28.2564 160.739 28.8231 160.752 29.5297C160.752 30.1564 160.579 30.7164 160.232 31.2097C159.885 31.7031 159.392 32.0897 158.752 32.3697C158.125 32.6497 157.385 32.7897 156.532 32.7897Z" fill="white"/>
</svg>
